PathFileType	4	(X/Y/Z)	DARI_DATA/Captury_Subj4_bilateral_squat01.trc
DataRate	CameraRate	NumFrames	NumMarkers	Units	OrigDataRate	OrigDataStartFrame	OrigNumFrames
60	60	4	47	mm	60.00239944458008	142	226
Frame#	Time		LeftUpLeg_		RightUpLeg_		LeftLeg_		RightLeg_		LeftFoot_		RightFoot_		LeftToeBase_		RightToeBase_		Knee_Lateral_r		Knee_Lateral_l		Ankle_Lateral_r		Ankle_Lateral_l		LeftArm_		LeftForeArm_		LeftHand_		LeftHandEE		RightArm_		RightForeArm_		RightHand_		RightHandEE		Spine_		Spine1_		Spine2_		Spine3_		Spine4_		Spine5_		Spine_x		Spine_y		Spine_z		RASI		LASI		RIPS		LIPS		RTHI		LTHI		RTIB		LTIB		RTOE		LTOE		RHEE		LHEE		RHipAngles		LHipAngles		RKneeAngles		LKneeAngles		RAnkleAngles		LAnkleAngles
			X1	Y1	Z1	X2	Y2	Z2	X3	Y3	Z3	X4	Y4	Z4	X5	Y5	Z5	X6	Y6	Z6	X7	Y7	Z7	X8	Y8	Z8	X9	Y9	Z9	X10	Y10	Z10	X11	Y11	Z11	X12	Y12	Z12	X13	Y13	Z13	X14	Y14	Z14	X15	Y15	Z15	X16	Y16	Z16	X17	Y17	Z17	X18	Y18	Z18	X19	Y19	Z19	X20	Y20	Z20	X21	Y21	Z21	X22	Y22	Z22	X23	Y23	Z23	X24	Y24	Z24	X25	Y25	Z25	X26	Y26	Z26	X27	Y27	Z27	X28	Y28	Z28	X29	Y29	Z29	X30	Y30	Z30	X31	Y31	Z31	X32	Y32	Z32	X33	Y33	Z33	X34	Y34	Z34	X35	Y35	Z35	X36	Y36	Z36	X37	Y37	Z37	X38	Y38	Z38	X39	Y39	Z39	X40	Y40	Z40	X41	Y41	Z41	X42	Y42	Z42	X43	Y43	Z43	X44	Y44	Z44	X45	Y45	Z45	X46	Y46	Z46	X47	Y47	Z47

142	2.35000	-92.19205	518.02435	228.41489	75.22247	511.62015	225.46484	-196.03473	395.67804	-145.41949	128.28789	387.04831	-158.16260	-174.51749	74.96005	48.65483	118.45355	74.89850	50.29271	-193.51233	26.16892	-71.43641	144.20728	28.18122	-69.36315	174.74634	385.46698	-153.74625	-241.63844	395.81339	-135.38576	163.20061	73.42807	73.20110	-216.23384	75.35624	76.74121	-159.67009	947.35968	-49.79276	-213.87900	946.23157	-333.25345	-189.46397	964.29572	-566.16925	-185.37000	980.93616	-650.16119	113.57514	953.51855	-38.93015	173.78883	942.52881	-320.96451	155.67917	965.27686	-554.04553	154.73235	982.89856	-637.93164	-6.07878	597.83667	183.26564	-6.19997	670.09320	117.04616	-7.60392	737.05212	92.78622	-11.56755	827.70477	86.48358	-20.74084	947.67413	29.62957	-28923081178180147754616411384381964288.00000	0.00000	-28923121742999355057957259278884536320.00000	40.87917	596.04034	182.43819	-5.20682	634.29053	153.61234	-4.30365	627.44836	219.72052	130.01160	499.50739	111.08357	-151.73615	510.28522	116.04829	32.02948	592.29431	222.26859	-43.10325	595.16846	223.59250	164.86989	448.96722	55.06453	-204.12798	458.80792	70.42097	162.18335	238.30484	-73.51775	-220.51321	194.66336	-38.59943	154.38901	32.11795	-142.41132	-201.37177	26.94330	-144.87228	122.18465	10.89928	98.70901	-177.04785	11.22393	97.49402	-110.76020	6.18289	1.79469	-110.91387	10.19501	5.47320	-100.21334	0.02466	-0.13524	-97.85899	-0.10645	-0.33422	-28.41611	3.22650	11.54019	-24.88047	-5.73387	7.17655
143	2.36667	-91.54060	524.25732	226.45087	75.89248	518.20349	223.83374	-195.42215	396.04227	-145.40082	128.48799	387.17136	-157.70056	-174.42868	74.96912	48.14308	118.54437	74.86548	50.51585	-193.63753	25.99254	-71.83860	143.91216	28.13171	-69.21601	174.94299	385.52930	-153.27005	-241.01498	396.18921	-135.31798	163.29199	73.37820	73.42206	-216.14522	75.45367	76.22780	-160.09975	955.43176	-48.40511	-214.41531	954.09637	-331.84451	-189.26822	972.24353	-564.67603	-184.60020	988.68268	-648.67761	113.13033	961.78271	-37.59079	172.61774	950.88373	-319.78278	155.12680	973.53949	-552.92004	154.12399	991.89423	-636.64819	-5.49456	604.40717	181.77377	-5.66055	677.04822	115.93870	-7.22734	744.18530	92.10963	-11.50625	834.89355	86.49667	-21.12260	955.32892	30.64997	-28923081178180147754616411384381964288.00000	0.00000	-28923121742999355057957259278884536320.00000	41.46860	602.70917	181.03970	-4.63400	640.96985	152.25439	-3.85701	633.89020	218.33919	130.94846	506.61618	109.52618	-150.83051	516.80432	113.93060	32.54216	598.80096	220.83739	-42.59890	601.51782	222.01190	165.30984	452.49182	54.46777	-203.46976	462.35577	69.48470	162.33105	238.35072	-73.17039	-220.22859	194.89107	-38.91381	153.85886	32.15226	-142.29199	-201.47670	26.70602	-145.27728	122.38951	10.86576	98.92261	-177.26024	11.35717	97.12743	-109.60242	5.99677	2.04706	-109.85836	10.32173	5.55683	-99.21576	0.07793	-0.12918	-96.87587	-0.02858	-0.36539	-28.36385	3.05799	11.53761	-24.67432	-5.73347	7.39466
144	2.38333	-91.61912	531.55066	224.97292	75.80396	525.41309	221.94521	-194.57089	396.91364	-144.86211	128.55916	387.66370	-157.19347	-174.45288	75.18494	47.68347	118.77393	74.84201	50.25461	-193.59311	26.11355	-72.27042	143.75520	28.10150	-69.55586	175.00890	386.05078	-152.69762	-240.17845	397.08563	-134.84648	163.49741	73.41191	73.21153	-216.22342	75.72538	75.68678	-160.07019	964.03149	-47.13976	-214.83473	962.52118	-330.49188	-188.68373	980.91400	-563.19348	-184.16174	997.00903	-647.26971	113.17029	970.20380	-36.49930	172.11057	959.56622	-318.81607	153.79141	983.34314	-551.77808	153.99181	1000.16913	-635.83258	-5.62548	611.89978	180.55368	-5.88201	684.89941	115.15333	-7.44958	752.15436	91.73389	-11.69757	842.87329	86.68099	-21.24615	963.63153	31.58386	-28923081178180147754616411384381964288.00000	0.00000	-28923121742999355057957259278884536320.00000	41.33488	610.17828	179.70444	-4.80923	648.62732	151.23846	-3.88807	641.17578	217.28049	130.59608	514.43628	107.45074	-151.16606	524.76538	112.54620	32.49550	606.05164	219.49950	-42.64107	608.80609	220.85828	165.28413	456.65143	53.82784	-203.13156	466.72906	68.89136	162.49551	238.68358	-72.98230	-219.89702	195.45872	-39.07392	153.41510	32.19686	-142.66615	-201.27275	26.84626	-145.72575	122.86693	10.86066	98.66530	-177.60019	11.64900	96.74711	-108.29173	6.18961	2.16734	-108.56826	10.01586	5.64898	-98.06577	0.10836	-0.13039	-95.71713	-0.00218	-0.38138	-28.19891	2.78725	11.54222	-24.42459	-5.73155	7.55581
145	2.40000	-91.90110	539.61151	222.96106	75.52436	533.45813	220.09918	-193.56786	397.68112	-144.49469	128.35822	388.49298	-156.32846	-174.73586	75.44958	47.33894	119.15472	75.03735	50.18744	-193.70299	26.10332	-72.52965	143.55304	28.09160	-69.66290	174.81046	387.01614	-151.81166	-239.20052	397.91830	-134.59537	163.86743	73.74316	73.17339	-216.57631	76.12184	75.23483	-159.99611	972.95349	-45.73884	-214.96269	971.48999	-329.05197	-188.46048	990.56403	-561.65894	-183.31436	1005.68610	-645.87976	113.19519	979.05939	-35.15736	171.13788	968.97595	-317.70081	152.54999	993.41052	-550.57336	153.92622	1009.91382	-634.68073	-5.86145	619.87347	178.47336	-6.03674	693.02203	113.35249	-7.56312	760.35608	90.39369	-11.77574	851.04840	86.22135	-21.23060	972.36255	32.53139	-28923081178180147754616411384381964288.00000	0.00000	-28923121742999355057957259278884536320.00000	41.09958	618.14752	177.67062	-5.01585	656.54694	149.09134	-4.15611	649.21698	215.14778	130.42146	522.26721	105.67577	-151.34471	532.62286	110.49214	32.22321	614.09473	217.46504	-42.91443	616.85620	218.74940	165.04756	461.56836	53.31857	-202.84915	471.52634	67.86996	162.58244	239.34492	-72.53197	-219.66141	196.04031	-39.24844	152.78210	32.14582	-142.83112	-201.18465	26.74995	-146.00623	123.63160	11.16450	98.70733	-178.17007	12.05495	96.56588	-107.29143	6.18096	2.11428	-107.56810	9.84856	5.73798	-96.79124	0.05960	-0.14350	-94.45622	0.02415	-0.36735	-27.89677	2.43909	11.54017	-24.13510	-5.72807	7.62217
